<svg xmlns="http://www.w3.org/2000/svg" viewBox="0 0 64 64" width="64" height="64">
  <rect width="64" height="64" rx="16" fill="#08150F"/>
  <g fill="#2DD4A8">
    <rect x="2.2" y="2.2" width="8.4" height="8.4" rx="3.2"/>
    <rect x="15.4" y="14.0" width="7.6" height="7.6" rx="2.9"/>
    <rect x="27.4" y="1.4" width="9.2" height="9.2" rx="3.5"/>
    <rect x="41.6" y="15.0" width="6.4" height="6.4" rx="2.5"/>
    <rect x="26.0" y="26.0" width="12.0" height="12.0" rx="4.6"/>
    <rect x="14.6" y="39.0" width="9.2" height="9.2" rx="3.5"/>
    <rect x="40.4" y="40.4" width="8.8" height="8.8" rx="3.4"/>
    <rect x="2.6" y="53.0" width="7.6" height="7.6" rx="2.9"/>
  </g>
  <g fill="#3ECF8E">
    <rect x="41.0" y="2.6" width="7.6" height="7.6" rx="2.9"/>
    <rect x="2.8" y="27.2" width="7.2" height="7.2" rx="2.8"/>
    <rect x="53.6" y="26.4" width="8.0" height="8.0" rx="3.1"/>
    <rect x="28.0" y="53.6" width="8.0" height="8.0" rx="3.1"/>
  </g>
  <g fill="#1A8A70">
    <rect x="54.4" y="3.4" width="6.0" height="6.0" rx="2.3"/>
    <rect x="16.2" y="27.8" width="6.0" height="6.0" rx="2.3"/>
    <rect x="54.0" y="54.0" width="6.4" height="6.4" rx="2.5"/>
  </g>
</svg>
